<svg xmlns="http://www.w3.org/2000/svg" width="43.968" height="44"><g fill="#fff"><path data-name="Path 3495" d="M24.46 21.35a7.822 7.822 0 01-8.972 0 9.324 9.324 0 00-4.426 4.118c-1.107 1.968-.239 4.752 1.676 4.752h14.473c1.915 0 2.782-2.783 1.674-4.752a9.313 9.313 0 00-4.425-4.118z"/><path data-name="Path 3496" d="M19.975 20.903a5.918 5.918 0 005.918-5.918v-1.418a5.918 5.918 0 00-11.836 0v1.418a5.918 5.918 0 005.918 5.918z"/><path data-name="Path 3497" d="M42.724 37.979l-6.517-6.349a19.982 19.982 0 10-4.575 4.576l6.345 6.516a3.09 3.09 0 004.864.184 3.153 3.153 0 00-.117-4.927zm-34.1-6.647a16.059 16.059 0 1122.712 0 16.059 16.059 0 01-22.717-.001z"/></g></svg>