<svg xmlns="http://www.w3.org/2000/svg" width="144" height="80"><g data-name="Group 558"><g data-name="Group 557" fill="#005dac" opacity=".08"><path data-name="Path 3418" d="M34.737 80C15.458 80 1.644 64.365 1.644 40.575 1.644 13.141 17.567 0 34.644 0 54.02 0 67.738 16.019 67.738 40c-.002 25.324-14.775 40-33.001 40zM34.45 7.578c-7.77 0-13.621 4.125-13.621 32.806 0 29.257 6.522 32.038 14.1 32.038 7.866 0 13.621-4.317 13.621-32.422 0-27.242-5.18-32.422-14.1-32.422z"/><path data-name="Path 3419" d="M110.414 33.478c9.688 0 10.935-6.139 10.935-12.566 0-10.36-4.8-13.142-11.7-13.142-10.744 0-11.511 9.5-11.9 14.58l-18.418-2.782C81.445 13.334 85.953 0 112.331 0c15.924 0 27.818 6.714 27.818 19.856 0 13.909-12.854 15.923-19.568 16.978 7.482 1.247 21.774 3.645 21.774 20.624C142.356 76.067 124.606 80 109.263 80c-27.818 0-31.271-15.348-33.286-24.653l18.514-2.3c.1 10.168 1.822 19.473 14.1 19.473 10.744 0 14.965-5.948 14.965-16.019 0-6.715-1.439-15.732-13.142-15.732H95.737v-7.29z"/></g></g></svg>