<svg xmlns="http://www.w3.org/2000/svg" width="144" height="80"><g data-name="Group 556"><g data-name="Group 555" fill="#005dac" opacity=".08"><path data-name="Path 3416" d="M34.415 80C15.136 80 1.322 64.365 1.322 40.575 1.322 13.141 17.245 0 34.322 0c19.376 0 33.094 16.019 33.094 40-.002 25.324-14.775 40-33.001 40zm-.287-72.422c-7.77 0-13.621 4.125-13.621 32.806 0 29.257 6.522 32.038 14.1 32.038 7.866 0 13.622-4.317 13.622-32.422-.001-27.242-5.181-32.422-14.101-32.422z"/><path data-name="Path 3417" d="M76.489 78.562c.481-5.564 1.056-11.128 5.181-17.458 5.371-8.154 10.551-10.839 24.268-17.938 11.8-6.043 17.65-9.113 17.65-20.144 0-10.072-3.933-15.635-13.717-15.635-13.622 0-14.1 12.47-14.485 23.885l-18.509-1.823C78.123 20.149 80.905 0 112.277 0c18.7 0 30.216 8.729 30.216 23.5 0 14-8.442 17.938-28.106 27.05-14.868 6.907-16.211 11.511-16.6 20.815h44.89v7.2z"/></g></g></svg>