<svg xmlns="http://www.w3.org/2000/svg" width="144" height="80"><g data-name="Group 554"><g data-name="Group 553" fill="#005dac" opacity=".1"><path data-name="Path 3414" d="M45.264 80c-19.28 0-33.093-15.635-33.093-39.425C12.171 13.141 28.094 0 45.171 0c19.374 0 33.086 16.019 33.086 40 0 25.324-14.768 40-32.993 40zm-.287-72.422c-7.77 0-13.621 4.125-13.621 32.806 0 29.257 6.522 32.038 14.1 32.038 7.865 0 13.62-4.317 13.62-32.422 0-27.242-5.179-32.422-14.1-32.422z"/><path data-name="Path 3415" d="M107.107 15.923c-3.645 1.822-9.88 2.878-17.65 3.07v-7.577c4.6-.767 12.758-2.3 17.938-9.88h18.033v77.025h-18.321z"/></g></g></svg>