<svg xmlns="http://www.w3.org/2000/svg" width="144" height="80" viewBox="0 0 144 80">
  <g id="img_no3" transform="translate(1179 998)" opacity="0.08">
    <g id="Group_558" data-name="Group 558" transform="translate(-1177.356 -998)">
      <g id="Group_557" data-name="Group 557" transform="translate(0)">
        <path id="Path_3418" data-name="Path 3418" d="M-164.852,80c-19.279,0-33.093-15.635-33.093-39.425,0-27.434,15.923-40.575,33-40.575,19.376,0,33.094,16.019,33.094,40C-131.853,65.324-146.626,80-164.852,80Zm-.287-72.422c-7.77,0-13.621,4.125-13.621,32.806,0,29.257,6.522,32.038,14.1,32.038,7.866,0,13.621-4.317,13.621-32.422C-151.039,12.758-156.219,7.578-165.139,7.578Z" transform="translate(197.945)" fill="#005dac"/>
        <path id="Path_3419" data-name="Path 3419" d="M-70.592,33.478c9.688,0,10.935-6.139,10.935-12.566,0-10.36-4.8-13.142-11.7-13.142-10.744,0-11.511,9.5-11.9,14.58l-18.418-2.782C-99.561,13.334-95.053,0-68.675,0c15.924,0,27.818,6.714,27.818,19.856,0,13.909-12.854,15.923-19.568,16.978,7.482,1.247,21.774,3.645,21.774,20.624C-38.65,76.067-56.4,80-71.743,80c-27.818,0-31.271-15.348-33.286-24.653l18.514-2.3c.1,10.168,1.822,19.473,14.1,19.473,10.744,0,14.965-5.948,14.965-16.019,0-6.715-1.439-15.732-13.142-15.732H-85.269v-7.29Z" transform="translate(179.362)" fill="#005dac"/>
      </g>
    </g>
    <rect id="Rectangle_2070" data-name="Rectangle 2070" width="144" height="80" transform="translate(-1179 -998)" fill="#fff" opacity="0"/>
  </g>
</svg>
