<svg xmlns="http://www.w3.org/2000/svg" width="144" height="80" viewBox="0 0 144 80">
  <g id="img_no1" transform="translate(1579 998)" opacity="0.1">
    <g id="Group_554" data-name="Group 554" transform="translate(-1566.829 -998)">
      <g id="Group_553" data-name="Group 553" transform="translate(0)">
        <path id="Path_3414" data-name="Path 3414" d="M-551.693,80c-19.28,0-33.093-15.635-33.093-39.425,0-27.434,15.923-40.575,33-40.575C-532.412,0-518.7,16.019-518.7,40-518.7,65.324-533.468,80-551.693,80Zm-.287-72.422c-7.77,0-13.621,4.125-13.621,32.806,0,29.257,6.522,32.038,14.1,32.038,7.865,0,13.62-4.317,13.62-32.422C-537.881,12.758-543.06,7.578-551.981,7.578Z" transform="translate(584.786)" fill="#005dac"/>
        <path id="Path_3415" data-name="Path 3415" d="M-470.528,16.307c-3.645,1.822-9.88,2.878-17.65,3.07V11.8c4.6-.767,12.758-2.3,17.938-9.88h18.033V78.945h-18.321Z" transform="translate(565.464 -0.384)" fill="#005dac"/>
      </g>
    </g>
    <rect id="Rectangle_2069" data-name="Rectangle 2069" width="144" height="80" transform="translate(-1579 -998)" fill="#fff" opacity="0"/>
  </g>
</svg>
