<svg xmlns="http://www.w3.org/2000/svg" width="144" height="80" viewBox="0 0 144 80">
  <g id="img_no2" transform="translate(1379 998)" opacity="0.08">
    <g id="Group_556" data-name="Group 556" transform="translate(-1377.678 -998)">
      <g id="Group_555" data-name="Group 555" transform="translate(0)">
        <path id="Path_3416" data-name="Path 3416" d="M-365.254,80c-19.279,0-33.093-15.635-33.093-39.425,0-27.434,15.923-40.575,33-40.575,19.376,0,33.094,16.019,33.094,40C-332.255,65.324-347.028,80-365.254,80Zm-.287-72.422c-7.77,0-13.621,4.125-13.621,32.806,0,29.257,6.522,32.038,14.1,32.038,7.866,0,13.622-4.317,13.622-32.422C-351.441,12.758-356.621,7.578-365.541,7.578Z" transform="translate(398.347)" fill="#005dac"/>
        <path id="Path_3417" data-name="Path 3417" d="M-304.388,78.562c.481-5.564,1.056-11.128,5.181-17.458,5.371-8.154,10.551-10.839,24.268-17.938,11.8-6.043,17.65-9.113,17.65-20.144,0-10.072-3.933-15.635-13.717-15.635-13.622,0-14.1,12.47-14.485,23.885L-304,29.449c1.246-9.3,4.028-29.449,35.4-29.449,18.7,0,30.216,8.729,30.216,23.5,0,14-8.442,17.938-28.106,27.05-14.868,6.907-16.211,11.511-16.6,20.815H-238.2v7.2Z" transform="translate(379.555)" fill="#005dac"/>
      </g>
    </g>
    <rect id="Rectangle_2068" data-name="Rectangle 2068" width="144" height="80" transform="translate(-1379 -998)" fill="#fff" opacity="0"/>
  </g>
</svg>
