<svg xmlns="http://www.w3.org/2000/svg" width="43.968" height="44" viewBox="0 0 43.968 44">
  <g id="search" transform="translate(-618.023 -368)">
    <path id="Path_3495" data-name="Path 3495" d="M662.671,430.108a7.822,7.822,0,0,1-8.972,0,9.324,9.324,0,0,0-4.426,4.118c-1.107,1.968-.239,4.752,1.676,4.752h14.473c1.915,0,2.782-2.783,1.674-4.752A9.313,9.313,0,0,0,662.671,430.108Z" transform="translate(-20.188 -40.758)" fill="#fff"/>
    <path id="Path_3496" data-name="Path 3496" d="M664.834,403.506a5.918,5.918,0,0,0,5.918-5.918v-1.418a5.918,5.918,0,0,0-11.836,0v1.418A5.918,5.918,0,0,0,664.834,403.506Z" transform="translate(-26.836 -14.603)" fill="#fff"/>
    <path id="Path_3497" data-name="Path 3497" d="M660.747,405.979l-6.517-6.349a19.982,19.982,0,1,0-4.575,4.576L656,410.722a3.09,3.09,0,0,0,4.864.184A3.153,3.153,0,0,0,660.747,405.979Zm-34.1-6.647a16.059,16.059,0,1,1,22.712,0A16.059,16.059,0,0,1,626.642,399.331Z" transform="translate(0 0)" fill="#fff"/>
  </g>
</svg>
